<?xml version="1.0" standalone="no"?>
<!DOCTYPE svg PUBLIC "-//W3C//DTD SVG 1.1//EN"
"http://www.w3.org/Graphics/SVG/1.1/DTD/svg11.dtd">

<svg width="701" height="907" view_box="0 0 701 907"
xmlns="http://www.w3.org/2000/svg"
xmlns:link="http://www.w3.org/1999/xlink">\n\n<desc>Généré par Mocodo 2.3.7 le Fri, 24 Jun 2022 04:28:30</desc>

<rect id="frame" x="0" y="0" width="701" height="907" fill="none" stroke="none" stroke-width="0"/>

<!-- Association SPECIALISED -->
<line x1="59" y1="680" x2="366" y2="562" stroke="#726f83" stroke-width="2"/>
<text x="114" y="674.77409934" fill="#726f83" font-family="Verdana" font-size="12">1,N</text>
<line x1="366" y1="470" x2="366" y2="562" stroke="#726f83" stroke-width="2"/>
<text x="371.0" y="529" fill="#726f83" font-family="Verdana" font-size="12">0,N</text>
<line x1="642" y1="680" x2="366" y2="562" stroke="#726f83" stroke-width="2"/>
<text x="576" y="676.977079757" fill="#726f83" font-family="Verdana" font-size="12">1,N</text>
<g id="association-SPECIALISED">
	<path d="M 400 537 a 14 14 90 0 1 14 14 V 562 h -96 V 551 a 14 14 90 0 1 14 -14" fill="#b2bba4" stroke="#b2bba4" stroke-width="0"/>
	<path d="M 414 562.0 v 11 a 14 14 90 0 1 -14 14 H 332 a 14 14 90 0 1 -14 -14 V 562.0 H 96" fill="#ccd6ba" stroke="#ccd6ba" stroke-width="0"/>
	<rect x="318" y="537" width="96" height="50" fill="none" rx="14" stroke="#85956b" stroke-width="2"/>
	<line x1="318" y1="562" x2="414" y2="562" stroke="#85956b" stroke-width="1"/>
	<text x="325" y="554.7" fill="#27360c" font-family="Verdana" font-size="12">SPECIALISED</text>
</g>

<!-- Association MATCHUP -->
<line x1="59" y1="680" x2="366" y2="361" stroke="#726f83" stroke-width="2"/>
<text x="114" y="638.166258848" fill="#726f83" font-family="Verdana" font-size="12">0,N</text>
<line x1="642" y1="680" x2="366" y2="361" stroke="#726f83" stroke-width="2"/>
<text x="604.311244301" y="630" fill="#726f83" font-family="Verdana" font-size="12">0,N</text>
<g id="association-MATCHUP">
	<path d="M 409 319 a 14 14 90 0 1 14 14 V 344 h -114 V 333 a 14 14 90 0 1 14 -14" fill="#b2bba4" stroke="#b2bba4" stroke-width="0"/>
	<path d="M 423 344.0 v 45 a 14 14 90 0 1 -14 14 H 323 a 14 14 90 0 1 -14 -14 V 344.0 H 114" fill="#ccd6ba" stroke="#ccd6ba" stroke-width="0"/>
	<rect x="309" y="319" width="114" height="84" fill="none" rx="14" stroke="#85956b" stroke-width="2"/>
	<line x1="309" y1="344" x2="423" y2="344" stroke="#85956b" stroke-width="1"/>
	<text x="336" y="336.7" fill="#27360c" font-family="Verdana" font-size="12">MATCHUP</text>
	<text x="316" y="361.8" fill="#607734" font-family="Verdana" font-size="12">candidate status</text>
	<text x="316" y="378.8" fill="#607734" font-family="Verdana" font-size="12">recruiter status</text>
	<text x="316" y="395.8" fill="#607734" font-family="Verdana" font-size="12">match status</text>
</g>

<!-- Association BELONGS TO -->
<line x1="642" y1="135" x2="480" y2="135" stroke="#726f83" stroke-width="2"/>
<text x="566" y="127.0" fill="#726f83" font-family="Verdana" font-size="12">1,1</text>
<line x1="366" y1="34" x2="480" y2="135" stroke="#726f83" stroke-width="2"/>
<text x="373.685278697" y="76" fill="#726f83" font-family="Verdana" font-size="12">1,N</text>
<g id="association-BELONGS TO">
	<path d="M 514 110 a 14 14 90 0 1 14 14 V 135 h -96 V 124 a 14 14 90 0 1 14 -14" fill="#b2bba4" stroke="#b2bba4" stroke-width="0"/>
	<path d="M 528 135.0 v 11 a 14 14 90 0 1 -14 14 H 446 a 14 14 90 0 1 -14 -14 V 135.0 H 96" fill="#ccd6ba" stroke="#ccd6ba" stroke-width="0"/>
	<rect x="432" y="110" width="96" height="50" fill="none" rx="14" stroke="#85956b" stroke-width="2"/>
	<line x1="432" y1="135" x2="528" y2="135" stroke="#85956b" stroke-width="1"/>
	<text x="439" y="127.7" fill="#27360c" font-family="Verdana" font-size="12">BELONGS TO</text>
</g>

<!-- Association IS DOMICILED -->
<line x1="59" y1="680" x2="192" y2="135" stroke="#726f83" stroke-width="2"/>
<text x="57.5733925255" y="579" fill="#726f83" font-family="Verdana" font-size="12">1,1</text>
<line x1="59" y1="135" x2="192" y2="135" stroke="#726f83" stroke-width="2"/>
<text x="113" y="152.0" fill="#726f83" font-family="Verdana" font-size="12">1,N</text>
<line x1="366" y1="34" x2="192" y2="135" stroke="#726f83" stroke-width="2"/>
<text x="304" y="51.4018891507" fill="#726f83" font-family="Verdana" font-size="12">1,1</text>
<g id="association-IS DOMICILED">
	<path d="M 230 110 a 14 14 90 0 1 14 14 V 135 h -104 V 124 a 14 14 90 0 1 14 -14" fill="#b2bba4" stroke="#b2bba4" stroke-width="0"/>
	<path d="M 244 135.0 v 11 a 14 14 90 0 1 -14 14 H 154 a 14 14 90 0 1 -14 -14 V 135.0 H 104" fill="#ccd6ba" stroke="#ccd6ba" stroke-width="0"/>
	<rect x="140" y="110" width="104" height="50" fill="none" rx="14" stroke="#85956b" stroke-width="2"/>
	<line x1="140" y1="135" x2="244" y2="135" stroke="#85956b" stroke-width="1"/>
	<text x="147" y="127.7" fill="#27360c" font-family="Verdana" font-size="12">IS DOMICILED</text>
</g>

<!-- Association CAN BE -->
<line x1="366" y1="135" x2="276" y2="269" stroke="#726f83" stroke-width="2"/>
<text x="305" y="182.765787666" fill="#726f83" font-family="Verdana" font-size="12">0,N</text>
<line x1="642" y1="135" x2="276" y2="269" stroke="#726f83" stroke-width="2"/>
<text x="566" y="148.168070477" fill="#726f83" font-family="Verdana" font-size="12">1,1</text>
<line x1="59" y1="680" x2="276" y2="269" stroke="#726f83" stroke-width="2"/>
<text x="86.2216704042" y="579" fill="#726f83" font-family="Verdana" font-size="12">1,1</text>
<g id="association-CAN BE">
	<path d="M 293 244 a 14 14 90 0 1 14 14 V 269 h -62 V 258 a 14 14 90 0 1 14 -14" fill="#b2bba4" stroke="#b2bba4" stroke-width="0"/>
	<path d="M 307 269.0 v 11 a 14 14 90 0 1 -14 14 H 259 a 14 14 90 0 1 -14 -14 V 269.0 H 62" fill="#ccd6ba" stroke="#ccd6ba" stroke-width="0"/>
	<rect x="245" y="244" width="62" height="50" fill="none" rx="14" stroke="#85956b" stroke-width="2"/>
	<line x1="245" y1="269" x2="307" y2="269" stroke="#85956b" stroke-width="1"/>
	<text x="252" y="261.7" fill="#27360c" font-family="Verdana" font-size="12">CAN BE</text>
</g>

<!-- Association OFFERS -->
<line x1="642" y1="135" x2="642" y2="269" stroke="#726f83" stroke-width="2"/>
<text x="647.0" y="194" fill="#726f83" font-family="Verdana" font-size="12">0,N</text>
<line x1="642" y1="680" x2="642" y2="269" stroke="#726f83" stroke-width="2"/>
<text x="647.0" y="630" fill="#726f83" font-family="Verdana" font-size="12">1,1</text>
<g id="association-OFFERS">
	<path d="M 659 244 a 14 14 90 0 1 14 14 V 269 h -62 V 258 a 14 14 90 0 1 14 -14" fill="#b2bba4" stroke="#b2bba4" stroke-width="0"/>
	<path d="M 673 269.0 v 11 a 14 14 90 0 1 -14 14 H 625 a 14 14 90 0 1 -14 -14 V 269.0 H 62" fill="#ccd6ba" stroke="#ccd6ba" stroke-width="0"/>
	<rect x="611" y="244" width="62" height="50" fill="none" rx="14" stroke="#85956b" stroke-width="2"/>
	<line x1="611" y1="269" x2="673" y2="269" stroke="#85956b" stroke-width="1"/>
	<text x="618" y="261.7" fill="#27360c" font-family="Verdana" font-size="12">OFFERS</text>
</g>

<!-- Association WANT -->
<line x1="59" y1="680" x2="366" y2="798" stroke="#726f83" stroke-width="2"/>
<text x="114" y="694.22590066" fill="#726f83" font-family="Verdana" font-size="12">1,1</text>
<line x1="642" y1="873" x2="366" y2="798" stroke="#726f83" stroke-width="2"/>
<text x="586" y="880.017892359" fill="#726f83" font-family="Verdana" font-size="12">1,N</text>
<line x1="480" y1="873" x2="366" y2="798" stroke="#726f83" stroke-width="2"/>
<text x="419" y="862.581474854" fill="#726f83" font-family="Verdana" font-size="12">1,N</text>
<line x1="59" y1="873" x2="366" y2="798" stroke="#726f83" stroke-width="2"/>
<text x="103" y="878.592211959" fill="#726f83" font-family="Verdana" font-size="12">1,N</text>
<line x1="276" y1="873" x2="366" y2="798" stroke="#726f83" stroke-width="2"/>
<text x="285.165651222" y="840" fill="#726f83" font-family="Verdana" font-size="12">1,N</text>
<line x1="642" y1="680" x2="366" y2="798" stroke="#726f83" stroke-width="2"/>
<text x="577" y="692.022920243" fill="#726f83" font-family="Verdana" font-size="12">1,1</text>
<g id="association-WANT">
	<path d="M 378 773 a 14 14 90 0 1 14 14 V 798 h -52 V 787 a 14 14 90 0 1 14 -14" fill="#b2bba4" stroke="#b2bba4" stroke-width="0"/>
	<path d="M 392 798.0 v 11 a 14 14 90 0 1 -14 14 H 354 a 14 14 90 0 1 -14 -14 V 798.0 H 52" fill="#ccd6ba" stroke="#ccd6ba" stroke-width="0"/>
	<rect x="340" y="773" width="52" height="50" fill="none" rx="14" stroke="#85956b" stroke-width="2"/>
	<line x1="340" y1="798" x2="392" y2="798" stroke="#85956b" stroke-width="1"/>
	<text x="347" y="790.7" fill="#27360c" font-family="Verdana" font-size="12">WANT</text>
</g>

<!-- Association HAS -->
<line x1="366" y1="34" x2="276" y2="34" stroke="#726f83" stroke-width="2"/>
<text x="304" y="26.0" fill="#726f83" font-family="Verdana" font-size="12">1,1</text>
<line x1="192" y1="34" x2="276" y2="34" stroke="#726f83" stroke-width="2"/>
<text x="227" y="51.0" fill="#726f83" font-family="Verdana" font-size="12">0,N</text>
<g id="association-HAS">
	<path d="M 282 9 a 14 14 90 0 1 14 14 V 34 h -40 V 23 a 14 14 90 0 1 14 -14" fill="#b2bba4" stroke="#b2bba4" stroke-width="0"/>
	<path d="M 296 34.0 v 11 a 14 14 90 0 1 -14 14 H 270 a 14 14 90 0 1 -14 -14 V 34.0 H 40" fill="#ccd6ba" stroke="#ccd6ba" stroke-width="0"/>
	<rect x="256" y="9" width="40" height="50" fill="none" rx="14" stroke="#85956b" stroke-width="2"/>
	<line x1="256" y1="34" x2="296" y2="34" stroke="#85956b" stroke-width="1"/>
	<text x="263" y="26.7" fill="#27360c" font-family="Verdana" font-size="12">HAS</text>
</g>

<!-- Entity SECTOR -->
<g id="entity-SECTOR">
	<g id="frame-SECTOR">
		<rect x="162" y="9" width="60" height="25" fill="#97b8ff" stroke="#97b8ff" stroke-width="0"/>
		<rect x="162" y="34.0" width="60" height="25" fill="#c0d4ff" stroke="#c0d4ff" stroke-width="0"/>
		<rect x="162" y="9" width="60" height="50" fill="none" stroke="#578dff" stroke-width="2"/>
		<line x1="162" y1="34" x2="222" y2="34" stroke="#578dff" stroke-width="1"/>
	</g>
	<text x="167" y="26.7" fill="#131114" font-family="Verdana" font-size="12">SECTOR</text>
	<text x="167" y="51.8" fill="#3e3c42" font-family="Verdana" font-size="12">name</text>
	<line x1="167" y1="54" x2="202" y2="54" stroke="#3e3c42" stroke-width="1"/>
</g>

<!-- Entity SALARY -->
<g id="entity-SALARY">
	<g id="frame-SALARY">
		<rect x="613" y="848" width="58" height="25" fill="#97b8ff" stroke="#97b8ff" stroke-width="0"/>
		<rect x="613" y="873.0" width="58" height="25" fill="#c0d4ff" stroke="#c0d4ff" stroke-width="0"/>
		<rect x="613" y="848" width="58" height="50" fill="none" stroke="#578dff" stroke-width="2"/>
		<line x1="613" y1="873" x2="671" y2="873" stroke="#578dff" stroke-width="1"/>
	</g>
	<text x="618" y="865.7" fill="#131114" font-family="Verdana" font-size="12">SALARY</text>
	<text x="618" y="890.8" fill="#3e3c42" font-family="Verdana" font-size="12">name</text>
	<line x1="618" y1="893" x2="653" y2="893" stroke="#3e3c42" stroke-width="1"/>
</g>

<!-- Entity CANDIDATE -->
<g id="entity-CANDIDATE">
	<g id="frame-CANDIDATE">
		<rect x="9" y="587" width="100" height="25" fill="#97b8ff" stroke="#97b8ff" stroke-width="0"/>
		<rect x="9" y="612.0" width="100" height="161" fill="#c0d4ff" stroke="#c0d4ff" stroke-width="0"/>
		<rect x="9" y="587" width="100" height="186" fill="none" stroke="#578dff" stroke-width="2"/>
		<line x1="9" y1="612" x2="109" y2="612" stroke="#578dff" stroke-width="1"/>
	</g>
	<text x="22" y="604.7" fill="#131114" font-family="Verdana" font-size="12">CANDIDATE</text>
	<text x="14" y="629.7" fill="#3e3c42" font-family="Verdana" font-size="12">last name</text>
	<line x1="14" y1="632" x2="74" y2="632" stroke="#3e3c42" stroke-width="1"/>
	<text x="14" y="646.7" fill="#3e3c42" font-family="Verdana" font-size="12">first name</text>
	<text x="14" y="663.7" fill="#3e3c42" font-family="Verdana" font-size="12">birth day</text>
	<text x="14" y="680.8" fill="#3e3c42" font-family="Verdana" font-size="12">phone number</text>
	<text x="14" y="697.8" fill="#3e3c42" font-family="Verdana" font-size="12">picture</text>
	<text x="14" y="714.8" fill="#3e3c42" font-family="Verdana" font-size="12">resume</text>
	<text x="14" y="731.8" fill="#3e3c42" font-family="Verdana" font-size="12">description</text>
	<text x="14" y="748.8" fill="#3e3c42" font-family="Verdana" font-size="12">position held</text>
	<text x="14" y="765.8" fill="#3e3c42" font-family="Verdana" font-size="12">portfolio</text>
</g>

<!-- Entity ADRESS -->
<g id="entity-ADRESS">
	<g id="frame-ADRESS">
		<rect x="10" y="76" width="98" height="25" fill="#97b8ff" stroke="#97b8ff" stroke-width="0"/>
		<rect x="10" y="101.0" width="98" height="93" fill="#c0d4ff" stroke="#c0d4ff" stroke-width="0"/>
		<rect x="10" y="76" width="98" height="118" fill="none" stroke="#578dff" stroke-width="2"/>
		<line x1="10" y1="101" x2="108" y2="101" stroke="#578dff" stroke-width="1"/>
	</g>
	<text x="33" y="93.7" fill="#131114" font-family="Verdana" font-size="12">ADRESS</text>
	<text x="15" y="118.7" fill="#3e3c42" font-family="Verdana" font-size="12">street number</text>
	<line x1="15" y1="121" x2="102" y2="121" stroke="#3e3c42" stroke-width="1"/>
	<text x="15" y="135.8" fill="#3e3c42" font-family="Verdana" font-size="12">street name</text>
	<text x="15" y="152.8" fill="#3e3c42" font-family="Verdana" font-size="12">zip</text>
	<text x="15" y="169.8" fill="#3e3c42" font-family="Verdana" font-size="12">city</text>
	<text x="15" y="186.8" fill="#3e3c42" font-family="Verdana" font-size="12">department</text>
</g>

<!-- Entity RECRUITER -->
<g id="entity-RECRUITER">
	<g id="frame-RECRUITER">
		<rect x="592" y="93" width="100" height="25" fill="#97b8ff" stroke="#97b8ff" stroke-width="0"/>
		<rect x="592" y="118.0" width="100" height="59" fill="#c0d4ff" stroke="#c0d4ff" stroke-width="0"/>
		<rect x="592" y="93" width="100" height="84" fill="none" stroke="#578dff" stroke-width="2"/>
		<line x1="592" y1="118" x2="692" y2="118" stroke="#578dff" stroke-width="1"/>
	</g>
	<text x="606" y="110.7" fill="#131114" font-family="Verdana" font-size="12">RECRUITER</text>
	<text x="597" y="135.8" fill="#3e3c42" font-family="Verdana" font-size="12">last name</text>
	<line x1="597" y1="138" x2="657" y2="138" stroke="#3e3c42" stroke-width="1"/>
	<text x="597" y="152.8" fill="#3e3c42" font-family="Verdana" font-size="12">first name</text>
	<text x="597" y="169.8" fill="#3e3c42" font-family="Verdana" font-size="12">phone number</text>
</g>

<!-- Entity EXPERIENCE -->
<g id="entity-EXPERIENCE">
	<g id="frame-EXPERIENCE">
		<rect x="228" y="848" width="96" height="25" fill="#97b8ff" stroke="#97b8ff" stroke-width="0"/>
		<rect x="228" y="873.0" width="96" height="25" fill="#c0d4ff" stroke="#c0d4ff" stroke-width="0"/>
		<rect x="228" y="848" width="96" height="50" fill="none" stroke="#578dff" stroke-width="2"/>
		<line x1="228" y1="873" x2="324" y2="873" stroke="#578dff" stroke-width="1"/>
	</g>
	<text x="237" y="865.7" fill="#131114" font-family="Verdana" font-size="12">EXPERIENCE</text>
	<text x="233" y="890.8" fill="#3e3c42" font-family="Verdana" font-size="12">years number</text>
	<line x1="233" y1="893" x2="318" y2="893" stroke="#3e3c42" stroke-width="1"/>
</g>

<!-- Entity CONTRACT -->
<g id="entity-CONTRACT">
	<g id="frame-CONTRACT">
		<rect x="20" y="848" width="78" height="25" fill="#97b8ff" stroke="#97b8ff" stroke-width="0"/>
		<rect x="20" y="873.0" width="78" height="25" fill="#c0d4ff" stroke="#c0d4ff" stroke-width="0"/>
		<rect x="20" y="848" width="78" height="50" fill="none" stroke="#578dff" stroke-width="2"/>
		<line x1="20" y1="873" x2="98" y2="873" stroke="#578dff" stroke-width="1"/>
	</g>
	<text x="25" y="865.7" fill="#131114" font-family="Verdana" font-size="12">CONTRACT</text>
	<text x="25" y="890.8" fill="#3e3c42" font-family="Verdana" font-size="12">name</text>
	<line x1="25" y1="893" x2="60" y2="893" stroke="#3e3c42" stroke-width="1"/>
</g>

<!-- Entity JOB -->
<g id="entity-JOB">
	<g id="frame-JOB">
		<rect x="603" y="638" width="78" height="25" fill="#97b8ff" stroke="#97b8ff" stroke-width="0"/>
		<rect x="603" y="663.0" width="78" height="59" fill="#c0d4ff" stroke="#c0d4ff" stroke-width="0"/>
		<rect x="603" y="638" width="78" height="84" fill="none" stroke="#578dff" stroke-width="2"/>
		<line x1="603" y1="663" x2="681" y2="663" stroke="#578dff" stroke-width="1"/>
	</g>
	<text x="630" y="655.7" fill="#131114" font-family="Verdana" font-size="12">JOB</text>
	<text x="608" y="680.8" fill="#3e3c42" font-family="Verdana" font-size="12">name</text>
	<line x1="608" y1="683" x2="643" y2="683" stroke="#3e3c42" stroke-width="1"/>
	<text x="608" y="697.8" fill="#3e3c42" font-family="Verdana" font-size="12">description</text>
	<text x="608" y="714.8" fill="#3e3c42" font-family="Verdana" font-size="12">status</text>
</g>

<!-- Entity USER -->
<g id="entity-USER">
	<g id="frame-USER">
		<rect x="332" y="84" width="68" height="25" fill="#97b8ff" stroke="#97b8ff" stroke-width="0"/>
		<rect x="332" y="109.0" width="68" height="77" fill="#c0d4ff" stroke="#c0d4ff" stroke-width="0"/>
		<rect x="332" y="84" width="68" height="102" fill="none" stroke="#578dff" stroke-width="2"/>
		<line x1="332" y1="109" x2="400" y2="109" stroke="#578dff" stroke-width="1"/>
	</g>
	<text x="349" y="101.7" fill="#131114" font-family="Verdana" font-size="12">USER</text>
	<text x="337" y="126.7" fill="#3e3c42" font-family="Verdana" font-size="12">email</text>
	<line x1="337" y1="129" x2="371" y2="129" stroke="#3e3c42" stroke-width="1"/>
	<text x="337" y="143.8" fill="#3e3c42" font-family="Verdana" font-size="12">password</text>
	<text x="337" y="160.8" fill="#3e3c42" font-family="Verdana" font-size="12">role</text>
	<text x="337" y="177.8" fill="#3e3c42" font-family="Verdana" font-size="12">is helped</text>
</g>

<!-- Entity JOBTITLE -->
<g id="entity-JOBTITLE">
	<g id="frame-JOBTITLE">
		<rect x="446" y="848" width="68" height="25" fill="#97b8ff" stroke="#97b8ff" stroke-width="0"/>
		<rect x="446" y="873.0" width="68" height="25" fill="#c0d4ff" stroke="#c0d4ff" stroke-width="0"/>
		<rect x="446" y="848" width="68" height="50" fill="none" stroke="#578dff" stroke-width="2"/>
		<line x1="446" y1="873" x2="514" y2="873" stroke="#578dff" stroke-width="1"/>
	</g>
	<text x="451" y="865.7" fill="#131114" font-family="Verdana" font-size="12">JOBTITLE</text>
	<text x="451" y="890.8" fill="#3e3c42" font-family="Verdana" font-size="12">title</text>
	<line x1="451" y1="893" x2="475" y2="893" stroke="#3e3c42" stroke-width="1"/>
</g>

<!-- Entity TECHNOLOGY -->
<g id="entity-TECHNOLOGY">
	<g id="frame-TECHNOLOGY">
		<rect x="308" y="428" width="116" height="25" fill="#97b8ff" stroke="#97b8ff" stroke-width="0"/>
		<rect x="308" y="453.0" width="116" height="59" fill="#c0d4ff" stroke="#c0d4ff" stroke-width="0"/>
		<rect x="308" y="428" width="116" height="84" fill="none" stroke="#578dff" stroke-width="2"/>
		<line x1="308" y1="453" x2="424" y2="453" stroke="#578dff" stroke-width="1"/>
	</g>
	<text x="323" y="445.7" fill="#131114" font-family="Verdana" font-size="12">TECHNOLOGY</text>
	<text x="313" y="470.8" fill="#3e3c42" font-family="Verdana" font-size="12">name</text>
	<line x1="313" y1="473" x2="348" y2="473" stroke="#3e3c42" stroke-width="1"/>
	<text x="313" y="487.8" fill="#3e3c42" font-family="Verdana" font-size="12">background color</text>
	<text x="313" y="504.8" fill="#3e3c42" font-family="Verdana" font-size="12">text color</text>
</g>

<!-- Entity COMPANY -->
<g id="entity-COMPANY">
	<g id="frame-COMPANY">
		<rect x="330" y="9" width="72" height="25" fill="#97b8ff" stroke="#97b8ff" stroke-width="0"/>
		<rect x="330" y="34.0" width="72" height="25" fill="#c0d4ff" stroke="#c0d4ff" stroke-width="0"/>
		<rect x="330" y="9" width="72" height="50" fill="none" stroke="#578dff" stroke-width="2"/>
		<line x1="330" y1="34" x2="402" y2="34" stroke="#578dff" stroke-width="1"/>
	</g>
	<text x="335" y="26.7" fill="#131114" font-family="Verdana" font-size="12">COMPANY</text>
	<text x="335" y="51.8" fill="#3e3c42" font-family="Verdana" font-size="12">name</text>
	<line x1="335" y1="54" x2="370" y2="54" stroke="#3e3c42" stroke-width="1"/>
</g>
</svg>